<?xml version="1.0" encoding="utf-8"?>
<!-- Generator: Adobe Illustrator 19.0.0, SVG Export Plug-In . SVG Version: 6.00 Build 0)  -->
<svg version="1.1" id="Layer_1" xmlns="http://www.w3.org/2000/svg" xmlns:xlink="http://www.w3.org/1999/xlink" x="0px" y="0px"
	 viewBox="0 0 80 42" style="enable-background:new 0 0 80 42;" xml:space="preserve">
<style type="text/css">
	.st0{fill:#35383B;}
</style>
<g id="XMLID_16_">
	<polygon id="XMLID_6_" class="st0" points="77.8,-0.5 63.1,7 48.5,-0.5 48.5,5.6 63.1,13.1 77.8,5.6 	"/>
	<g id="XMLID_18_">
		<g id="XMLID_55_">
			<polygon id="XMLID_59_" class="st0" points="71.7,20.6 71.7,33.2 65.7,33.2 65.7,26.1 63.1,26.1 60.5,26.1 60.5,33.2 54.6,33.2 
				54.6,20.6 48.5,20.6 48.5,39.3 77.8,39.3 77.8,20.6 			"/>
			<g id="XMLID_56_">
				<polygon id="XMLID_58_" class="st0" points="69.1,10.1 63.1,7 48.5,14.5 48.5,20.6 63.1,13.1 69.1,16.2 				"/>
				<polygon id="XMLID_57_" class="st0" points="71.7,11.4 71.7,17.5 77.8,20.6 77.8,14.5 				"/>
			</g>
		</g>
	</g>
</g>
<g id="XMLID_8_">
	<g id="XMLID_37_">
		<path id="XMLID_39_" class="st0" d="M22.7,34.9c-0.4,0.6-0.8,1.2-1,1.2c-0.1,0-0.2-0.2-0.2-0.7c0.1-2.2,0.7-8.3,1-11.4
			c0.6-5.4,1.5-10.9,3.2-16.1c0.4-1.3,0.4-1.5-0.4-2.2c-0.6-0.5-2.3-1.2-3.5-0.9c-0.8,0.2-1.1,1.1-1.2,1.6c-0.3,1.2-0.8,3.6-1.2,5.3
			c-1,4.5-1.6,9.1-2,13.4c-0.1,0.8-0.3,1.2-0.8,1.4c-1.8,0.7-5.1,1.5-7,1.9c-0.2,0-0.3-0.3-0.2-0.5c0.8-1.9,1.8-4.3,2.6-6.2
			c1.8-3.9,4.2-8.4,6.5-12.1c0.2-0.2,0.1-0.4-0.2-0.7c-0.4-0.3-1.1-0.4-1.5-0.5c-0.4,0-0.6,0.1-0.8,0.5C12,15.1,8.1,22.3,5,29
			c-0.2,0.5-0.3,0.5-0.6,0.6c-0.7,0.1-1.5,0.2-2.4,0.1c-0.4,0,0,1.4,1.3,2.1c0.3,0.1,0.3,0.3,0.2,0.6c-0.6,1.4-1.5,3.5-2,4.9
			c-0.1,0.4,0,0.9,0.2,1.2c0.6,0.9,1.6,1.4,2.7,1.5c0.5,0,0.7-0.2,0.9-0.7C6,36.9,7,34.3,7.9,32c0.2-0.4,0.2-0.4,0.7-0.6
			c1.8-0.5,5.5-1.8,7.3-2.4c0.8-0.3,1-0.2,0.9,0.1c-0.3,3-0.7,7.5-0.8,10.4c0,0.5,0,1.1,0.5,1.4c0.4,0.3,1.4,0.5,2,0.6
			c1.3,0.1,1.9,0,1.9,0c0,0.3,0.2,0.4,0.4,0.4c0.2,0,0.3,0,0.4-0.3c0.1-0.6,1.3-4.8,2.2-7.1C23.6,34,23.1,34.3,22.7,34.9z"/>
		<path id="XMLID_38_" class="st0" d="M48.1,8.1C47.7,8,46.8,8,45.9,8.1c-0.5,0.1-0.8,0.2-1,0.1c-0.2-0.1-0.2-0.2-0.1-0.6
			c0.2-0.6,0.7-1.9,1-2.6c0.4-1,0.4-1.6-0.8-2c-0.4-0.1-1.3-0.3-1.7-0.2c-0.8,0-1.4,0.4-1.8,1.2c-0.4,1-0.7,2.1-1,3.1
			c-0.3,0.9-0.7,2.3-0.8,2.4c-0.1,0.1-0.7,0.1-2.5,0.9c-0.5,0.2-1.1,0.5-1.5,0.9c-0.4,0.4-0.4,0.8,0.1,0.7c1-0.3,1.9-0.5,2.7-0.7
			c0.7-0.1,0.8,0.1,0.6,0.9c-1.3,5.9-3,11.5-5.3,17.2c-0.4,0.9-1,2.3-1.6,3C32,33,31.5,33,31.4,32.4c-0.1-0.6,0-1.6,0.2-2.2
			c0.7-3.3,1.4-6.4,2.2-9.7c0.4-1.6,0.2-2.7-1.1-3.7c-0.8-0.6-1.5-1.2-2.6-1.7c-1.2-0.6-1.4-1.3-0.8-2.4c0.2-0.3,0.5-0.5,0.7-0.8
			c0.1-0.2,0.2-0.4,0.1-0.6c-0.2-0.7-2-1.4-2.6-1c-1.1,0.8-1.8,3.6-0.6,4.4c0.5,0.4,0.5,0.4,0.4,1c-0.5,2.6-1.3,5.1-1.9,7.6
			c-0.1,0.5-0.2,0.9,0,1.1c0.1,0.2,0.3,0,0.5-0.6c0.5-1.7,1.5-5.2,2-6.9c0.2-0.6,0.3-0.9,0.4-1c0.1,0,0.4,0.2,0.6,0.3
			c0.7,0.6,1,1.3,0.6,2.7c-0.7,3.1-1.5,6.1-2,9.3c-0.3,1.7-0.6,3.8-0.3,5.4c0.2,1.2,0.9,2.3,2.3,2.7c1.3,0.3,2.4-0.1,3.1-1.3
			c0.7-1,1.3-2,1.8-3.1c0.8-1.8,1.4-3.7,2.2-5.8c0,0.5-0.1,0.8-0.1,1.1c0.1,1.4,0,2.8,0.2,4.2c0.2,1.2,0.8,2.1,2.1,2.4
			c1.3,0.3,2.3-0.2,3-1.2c0.7-0.9,1.4-2,1.9-3.1c0.6-1.3,1.2-3.4,1.6-4.9c0.2-1.1,0.2-1.3,0-1.3c-0.1,0-0.3,0.2-0.7,1.3
			c-0.7,1.7-1.7,3.4-2.8,4.8c-0.4,0.5-0.7,1-1,0.9c-0.3-0.1-0.4-0.6-0.3-1.2c0.4-6.2,1.8-12.9,3.4-18.5c0.1-0.5,0.2-0.6,0.8-0.8
			c1.3-0.4,2-0.5,2.9-0.6C48.4,9.3,48.8,8.2,48.1,8.1z"/>
	</g>
</g>
</svg>
