<?xml version="1.0" encoding="utf-8"?>
<!-- Generator: Adobe Illustrator 19.0.0, SVG Export Plug-In . SVG Version: 6.00 Build 0)  -->
<svg version="1.1" id="Layer_1" xmlns="http://www.w3.org/2000/svg" xmlns:xlink="http://www.w3.org/1999/xlink" x="0px" y="0px"
	 viewBox="0 0 36 29" style="enable-background:new 0 0 36 29;" xml:space="preserve">
<style type="text/css">
	.st0{fill:#35383B;}
</style>
<g>
	<path class="st0" d="M7.3,27.9l-5.6-4.6c2.5-1.2,6-4.4,6.9-7.3c-0.4,0.2-1.2,0.4-1.9,0.4C3.1,16.3,0,13.4,0,9.2
		c0-4.4,3.7-8.1,8.1-8.1c4.6,0,8.9,3.7,8.9,10C16.9,17.7,13.3,23.6,7.3,27.9z M26.4,27.9l-5.6-4.6c2.5-1.2,6-4.4,6.9-7.3
		c-0.4,0.2-1.2,0.4-1.9,0.4c-3.7,0-6.7-2.9-6.7-7.1c0-4.4,3.7-8.1,8.1-8.1c4.6,0,8.9,3.7,8.9,10C36,17.7,32.3,23.6,26.4,27.9z"/>
</g>
</svg>
