<?xml version="1.0" encoding="utf-8"?>
<!-- Generator: Adobe Illustrator 19.0.0, SVG Export Plug-In . SVG Version: 6.00 Build 0)  -->
<svg version="1.1" id="Layer_1" xmlns="http://www.w3.org/2000/svg" xmlns:xlink="http://www.w3.org/1999/xlink" x="0px" y="0px"
	 viewBox="0 0 50 50" style="enable-background:new 0 0 50 50;" xml:space="preserve">
<style type="text/css">
	.st0{fill:#EB3E3B;}
</style>
<g id="XMLID_2_">
	<path id="XMLID_6_" class="st0" d="M33.4,14.4c-0.7,0-1.4,0.2-1.9,0.6v-1.1c0-0.5-0.4-0.9-0.8-0.9H19.4c-0.5,0-0.8,0.4-0.8,0.9V15
		c-0.6-0.4-1.2-0.6-1.9-0.6c-2,0-3.6,1.7-3.6,3.7c0,2.1,1.6,3.7,3.6,3.7h1.4c0.3,0,0.5,0.3,0.5,0.6c0,0.3-0.2,0.6-0.5,0.6
		c-0.5,0-0.8,0.4-0.8,0.9s0.4,0.9,0.8,0.9s0.8-0.1,1.1-0.3c0.3,0.9,0.7,1.6,1.3,2.3c0.7,0.8,1.5,1.4,2.3,1.8c0,0.5-0.1,1.3-0.5,2.2
		c-0.6,1.5-1.5,2.3-2.9,2.3H18c-0.5,0-0.8,0.4-0.8,0.9v4.3c0,0.5,0.4,0.9,0.8,0.9h13.9c0.5,0,0.8-0.4,0.8-0.9V34
		c0-0.5-0.4-0.9-0.8-0.9h-1.4c-1.4,0-2.3-0.7-2.9-2.3c-0.3-0.8-0.4-1.7-0.5-2.2c0.9-0.4,1.7-1,2.3-1.8c0.5-0.7,1-1.4,1.3-2.3
		c0.3,0.2,0.7,0.3,1.1,0.3c0.5,0,0.8-0.4,0.8-0.9S32.2,23,31.8,23c-0.3,0-0.5-0.3-0.5-0.6c0-0.3,0.2-0.6,0.5-0.6h1.4
		c2,0,3.6-1.7,3.6-3.7C37,16.1,35.4,14.4,33.4,14.4z M18.6,20.2c-0.2,0-0.4-0.1-0.5-0.1h-1.4c-1.1,0-1.9-0.9-1.9-2s0.9-2,1.9-2
		c1.1,0,1.9,0.9,1.9,2V20.2z M31.1,34.7v2.6H18.9v-2.6H31.1z M23,33c0.4-0.5,0.7-1,0.9-1.7c0.3-0.9,0.5-1.7,0.5-2.3
		c0.2,0,0.4,0,0.6,0s0.4,0,0.6,0c0.1,0.6,0.2,1.5,0.5,2.3c0.2,0.7,0.5,1.2,0.9,1.7H23z M29.7,21c0,3.6-2,6.3-4.7,6.3
		s-4.7-2.6-4.7-6.3v-6.3h9.5V21H29.7z M33.4,20.1H32c-0.2,0-0.4,0-0.5,0.1v-2.1c0-1.1,0.9-2,1.9-2c1.1,0,1.9,0.9,1.9,2
		S34.4,20.1,33.4,20.1z"/>
	<path id="XMLID_3_" class="st0" d="M25,2c12.7,0,23,10.3,23,23S37.7,48,25,48S2,37.7,2,25S12.3,2,25,2 M25,0C11.2,0,0,11.2,0,25
		s11.2,25,25,25s25-11.2,25-25S38.8,0,25,0L25,0z"/>
</g>
</svg>
