<?xml version="1.0" encoding="utf-8"?>
<!-- Generator: Adobe Illustrator 19.0.0, SVG Export Plug-In . SVG Version: 6.00 Build 0)  -->
<svg version="1.1" id="Layer_1" xmlns="http://www.w3.org/2000/svg" xmlns:xlink="http://www.w3.org/1999/xlink" x="0px" y="0px"
	 viewBox="0 0 62 32" style="enable-background:new 0 0 62 32;" xml:space="preserve">
<style type="text/css">
	.st0{fill:#B22626;}
	.st1{fill:#EB3F3C;}
	.st2{fill:#D8DCE1;}
</style>
<polygon id="XMLID_6_" class="st0" points="60.2,0 49.2,5.7 38.1,0 38.1,4.6 49.2,10.2 60.2,4.6 "/>
<g id="XMLID_16_">
	<g id="XMLID_54_">
		<polygon id="XMLID_58_" class="st1" points="55.6,15.9 55.6,25.4 51.1,25.4 51.1,20 49.2,20 47.2,20 47.2,25.4 42.7,25.4 
			42.7,15.9 38.1,15.9 38.1,30 60.2,30 60.2,15.9 		"/>
		<g id="XMLID_55_">
			<polygon id="XMLID_57_" class="st1" points="53.7,7.9 49.2,5.7 38.1,11.3 38.1,15.9 49.2,10.2 53.7,12.5 			"/>
			<polygon id="XMLID_56_" class="st1" points="55.6,8.9 55.6,13.5 60.2,15.9 60.2,11.3 			"/>
		</g>
	</g>
</g>
<g id="XMLID_8_">
	<g id="XMLID_36_">
		<path id="XMLID_38_" class="st2" d="M18.7,26.6c-0.3,0.5-0.6,0.9-0.8,0.9c-0.1,0-0.1-0.1-0.1-0.5c0.1-1.7,0.5-6.3,0.8-8.6
			c0.4-4.1,1.1-8.2,2.4-12.1c0.3-1,0.3-1.2-0.3-1.6C20.3,4.3,19,3.8,18.1,4c-0.6,0.1-0.8,0.8-0.9,1.2c-0.2,0.9-0.6,2.7-0.9,4
			c-0.8,3.4-1.2,6.8-1.5,10.1c-0.1,0.6-0.2,0.9-0.6,1.1c-1.4,0.5-3.8,1.1-5.2,1.4c-0.2,0-0.3-0.2-0.2-0.4c0.6-1.4,1.3-3.2,2-4.6
			c1.4-3,3.2-6.3,4.9-9.1c0.1-0.2,0.1-0.3-0.1-0.5c-0.3-0.3-0.8-0.3-1.1-0.3c-0.3,0-0.4,0.1-0.6,0.4c-3.1,4.6-6,10-8.3,15
			c-0.2,0.3-0.2,0.4-0.5,0.4c-0.5,0.1-1.1,0.1-1.8,0.1c-0.3,0,0,1.1,1,1.6c0.2,0.1,0.2,0.2,0.1,0.4c-0.5,1.1-1.1,2.6-1.5,3.7
			c-0.1,0.3,0,0.7,0.2,0.9c0.4,0.7,1.2,1,2,1.1c0.4,0,0.6-0.1,0.7-0.5c0.5-1.7,1.3-3.6,2-5.4c0.1-0.3,0.1-0.3,0.5-0.5
			c1.4-0.4,4.1-1.3,5.5-1.8c0.6-0.2,0.7-0.2,0.7,0.1c-0.2,2.3-0.5,5.6-0.6,7.9c0,0.4,0,0.8,0.4,1.1c0.3,0.2,1,0.4,1.5,0.4
			c1,0.1,1.4,0,1.4,0c0,0.2,0.1,0.3,0.3,0.3c0.2,0,0.3,0,0.3-0.2c0.1-0.4,1-3.6,1.6-5.3C19.4,25.9,19,26.2,18.7,26.6z"/>
		<path id="XMLID_37_" class="st2" d="M37.9,6.4c-0.3-0.1-1-0.1-1.7,0.1c-0.4,0.1-0.6,0.1-0.8,0.1c-0.1,0-0.2-0.2-0.1-0.4
			c0.1-0.4,0.5-1.4,0.7-2c0.3-0.7,0.3-1.2-0.6-1.5c-0.3-0.1-0.9-0.2-1.3-0.2c-0.6,0-1.1,0.3-1.3,0.9c-0.3,0.8-0.5,1.6-0.8,2.3
			c-0.2,0.7-0.5,1.7-0.6,1.8c-0.1,0.1-0.5,0.1-1.9,0.7c-0.3,0.2-0.8,0.4-1.1,0.7c-0.3,0.3-0.3,0.6,0.1,0.5c0.7-0.2,1.4-0.4,2-0.5
			c0.6-0.1,0.6,0.1,0.5,0.7c-1,4.4-2.2,8.7-4,12.9c-0.3,0.7-0.8,1.7-1.2,2.3c-0.3,0.4-0.6,0.4-0.7-0.1c-0.1-0.5,0-1.2,0.1-1.6
			c0.5-2.5,1-4.8,1.6-7.3c0.3-1.2,0.1-2-0.8-2.8c-0.6-0.5-1.2-0.9-1.9-1.3c-0.9-0.4-1.1-1-0.6-1.8c0.1-0.2,0.4-0.4,0.5-0.6
			c0.1-0.1,0.1-0.3,0.1-0.4c-0.2-0.5-1.5-1-2-0.7c-0.8,0.6-1.3,2.7-0.5,3.3c0.4,0.3,0.4,0.3,0.3,0.7c-0.4,1.9-1,3.9-1.4,5.7
			c-0.1,0.4-0.1,0.7,0,0.9c0.1,0.1,0.2,0,0.4-0.5c0.4-1.3,1.1-3.9,1.5-5.2c0.1-0.5,0.2-0.7,0.3-0.7c0.1,0,0.3,0.1,0.5,0.3
			c0.6,0.4,0.7,0.9,0.5,2.1c-0.6,2.3-1.1,4.6-1.5,7c-0.2,1.3-0.4,2.8-0.2,4.1c0.2,0.9,0.7,1.7,1.7,2c1,0.3,1.8-0.1,2.4-0.9
			c0.5-0.7,1-1.5,1.3-2.3c0.6-1.4,1.1-2.8,1.6-4.3c0,0.4-0.1,0.6,0,0.8c0,1.1,0,2.1,0.2,3.1c0.1,0.9,0.6,1.6,1.6,1.8
			c0.9,0.2,1.7-0.2,2.2-0.9c0.5-0.7,1-1.5,1.4-2.3c0.4-1,0.9-2.5,1.2-3.7c0.2-0.8,0.1-0.9,0-1c-0.1,0-0.2,0.1-0.5,0.9
			c-0.5,1.3-1.3,2.6-2.1,3.6c-0.3,0.4-0.6,0.7-0.8,0.7c-0.2,0-0.3-0.5-0.3-0.9c0.3-4.7,1.3-9.7,2.6-13.9c0.1-0.3,0.1-0.5,0.6-0.6
			c1-0.3,1.5-0.4,2.2-0.5C38.1,7.3,38.4,6.6,37.9,6.4z"/>
	</g>
</g>
</svg>
