<?xml version="1.0" encoding="utf-8"?>
<!-- Generator: Adobe Illustrator 19.0.0, SVG Export Plug-In . SVG Version: 6.00 Build 0)  -->
<svg version="1.1" id="Layer_1" xmlns="http://www.w3.org/2000/svg" xmlns:xlink="http://www.w3.org/1999/xlink" x="0px" y="0px"
	 viewBox="0 0 46 40" style="enable-background:new 0 0 46 40;" xml:space="preserve">
<style type="text/css">
	.st0{fill:#60707C;}
</style>
<path id="XMLID_8_" class="st0" d="M20.5,15.1l-4,4.1V8.3c0-0.5-0.4-0.8-0.8-0.8c-0.4,0-0.8,0.4-0.8,0.8v10.9l-4-4.1
	c-0.3-0.3-0.8-0.3-1.2,0c-0.2,0.2-0.2,0.4-0.2,0.6c0,0.2,0.1,0.4,0.2,0.6l5.4,5.5c0.3,0.3,0.8,0.3,1.2,0l5.4-5.5
	c0.3-0.3,0.3-0.8,0-1.3C21.3,14.8,20.8,14.8,20.5,15.1z M31,7.7c-0.3-0.3-0.8-0.3-1.2,0l-5.4,5.5c-0.2,0.2-0.2,0.4-0.2,0.6
	c0,0.2,0.1,0.4,0.2,0.6c0.3,0.3,0.8,0.3,1.2,0l4-4.1v10.9c0,0.5,0.4,0.8,0.8,0.8c0.4,0,0.8-0.4,0.8-0.8V10.4l4,4.1
	c0.3,0.3,0.8,0.3,1.2,0c0.3-0.3,0.3-0.8,0-1.3L31,7.7z M42,0.2H4C1.8,0.2,0,1.9,0,4v24.9c0,2.2,1.8,3.9,4,3.9H19l-0.7,4.9H15
	c-0.6,0-1,0.5-1,1c0,0.6,0.5,1,1,1h16c0.6,0,1-0.5,1-1c0-0.6-0.5-1-1-1h-3.3L27,32.8H42c2.2,0,4-1.8,4-3.9V4C46,1.9,44.2,0.2,42,0.2
	z M20.5,37.7l0.7-4.9h3.7l0.7,4.9H20.5z M43.8,28.9c0,0.9-0.8,1.8-1.8,1.8H4c-0.9,0-1.8-0.7-1.8-1.8v-0.7h41.7
	C43.8,28.2,43.8,28.9,43.8,28.9z M43.8,26.1H2.2V4C2.2,3.1,3,2.3,4,2.3h38.2c0.9,0,1.8,0.7,1.8,1.8L43.8,26.1L43.8,26.1z"/>
</svg>
