<?xml version="1.0" encoding="utf-8"?>
<!-- Generator: Adobe Illustrator 19.0.0, SVG Export Plug-In . SVG Version: 6.00 Build 0)  -->
<svg version="1.1" id="Layer_1" xmlns="http://www.w3.org/2000/svg" xmlns:xlink="http://www.w3.org/1999/xlink" x="0px" y="0px"
	 viewBox="0 0 46 40" style="enable-background:new 0 0 46 40;" xml:space="preserve">
<style type="text/css">
	.st0{fill:#60707C;}
</style>
<path id="XMLID_8_" class="st0" d="M78.4,15.1l-4,4.1V8.3c0-0.5-0.4-0.8-0.8-0.8s-0.8,0.4-0.8,0.8v10.9l-4-4.1
	c-0.3-0.3-0.8-0.3-1.2,0c-0.2,0.2-0.2,0.4-0.2,0.6c0,0.2,0.1,0.4,0.2,0.6l5.4,5.5c0.3,0.3,0.8,0.3,1.2,0l5.4-5.5
	c0.3-0.3,0.3-0.8,0-1.3C79.2,14.8,78.7,14.8,78.4,15.1z M88.8,7.7c-0.3-0.3-0.8-0.3-1.2,0l-5.4,5.5C82,13.5,82,13.7,82,13.9
	c0,0.2,0.1,0.4,0.2,0.6c0.3,0.3,0.8,0.3,1.2,0l4-4.1v10.9c0,0.5,0.4,0.8,0.8,0.8s0.8-0.4,0.8-0.8V10.4l4,4.1c0.3,0.3,0.8,0.3,1.2,0
	c0.3-0.3,0.3-0.8,0-1.3L88.8,7.7z M99.9,0.2H61.8c-2.2,0-4,1.8-4,3.9v24.9c0,2.2,1.8,3.9,4,3.9h15.1l-0.7,4.9h-3.2c-0.6,0-1,0.5-1,1
	c0,0.6,0.5,1,1,1h16c0.6,0,1-0.5,1-1c0-0.6-0.5-1-1-1h-3.3l-0.7-4.9h15.1c2.2,0,4-1.8,4-3.9V4C103.9,1.9,102.1,0.2,99.9,0.2z
	 M78.4,37.7l0.7-4.9h3.7l0.7,4.9H78.4z M101.7,28.9c0,0.9-0.8,1.8-1.8,1.8H61.8c-0.9,0-1.8-0.7-1.8-1.8v-0.7h41.7
	C101.7,28.2,101.7,28.9,101.7,28.9z M101.7,26.1H60V4c0-0.9,0.8-1.8,1.8-1.8H100c0.9,0,1.8,0.7,1.8,1.8L101.7,26.1L101.7,26.1z"/>
<path id="XMLID_9_" class="st0" d="M-40.4,10.1c0.1-0.1,0.2-0.2,0.2-0.3l0,0l3.1-8c0.3-0.7-0.5-1.4-1.1-1.1l-8,3.1l0,0
	c-0.1,0-0.2,0.1-0.3,0.2l-16.7,16.7c-1.7,1.7-1.7,4.5,0,6.1c1.7,1.7,4.5,1.7,6.1,0L-40.4,10.1z M-54,21.1l-1.2-1.2l11.6-11.7
	l1.2,1.2L-54,21.1z M-39.5,3l-1.9,4.9l-3.1-3.1L-39.5,3z M-57.8,17.5L-46,5.8l1.2,1.2l-11.7,11.7L-57.8,17.5L-57.8,17.5z M-59,18.7
	l1.9,1.9l0,0l0,0l1.9,1.9l-1.2,1.2l-3.7-3.7L-59,18.7z M-58.3,25.5c-1,1-2.7,1-3.7,0c-1-1-1-2.7,0-3.7l0.7-0.7l3.7,3.7L-58.3,25.5z
	 M-20.1,10.7l-7.4-7.4c-0.4-0.4-0.9-0.4-1.2,0l-28.4,28.4c-0.4,0.4-0.4,0.9,0,1.2l7.4,7.4c0.4,0.4,0.9,0.4,1.2,0l28.4-28.4
	C-19.8,11.5-19.8,11-20.1,10.7z M-49.1,38.4l-6.1-6.1l3.7-3.7l1.9,1.9c0.4,0.4,0.9,0.4,1.2,0c0.4-0.4,0.4-0.9,0-1.2l-1.9-1.9
	l3.7-3.7l1.9,1.9c0.4,0.4,0.9,0.4,1.2,0c0.4-0.4,0.4-0.9,0-1.2l-1.9-1.9l3.7-3.7l1.9,1.9c0.4,0.4,0.9,0.4,1.2,0
	c0.4-0.4,0.4-0.9,0-1.2l-1.9-1.9l3.7-3.7l1.9,1.9c0.4,0.4,0.9,0.4,1.2,0c0.4-0.4,0.4-0.9,0-1.2l-1.9-1.9l3.7-3.7l1.9,1.9
	c0.4,0.4,0.9,0.4,1.2,0c0.4-0.4,0.4-0.9,0-1.2l-1.9-1.9l2.4-2.5l6.1,6.1L-49.1,38.4z"/>
<path id="XMLID_18_" class="st0" d="M-19.5-8.3c1,0,1.7-0.8,1.7-1.7s-0.8-1.7-1.7-1.7c-1,0-1.7,0.8-1.7,1.7S-20.5-8.3-19.5-8.3z
	 M2.9-37l-8.1,8.1v-6c0-0.5-0.4-0.9-0.9-0.9c-0.3,0-0.5,0.1-0.7,0.3c-0.2,0.2-0.3,0.4-0.3,0.7l-0.1,8.1c0,0.5,0.4,0.9,0.9,0.9
	l8.1-0.1c0.5,0,0.9-0.4,1-1c0-0.5-0.4-0.9-0.9-0.9h-6L4-35.9c0.4-0.4,0.4-1,0-1.2C3.7-37.4,3.2-37.4,2.9-37z M13.2-45h-31
	c-2,0-3.6,1.6-3.6,3.5v4.1h-5.1c-1.4,0-2.6,1.1-2.6,2.5v26.6c0,1.3,1.1,2.5,2.6,2.5h14c1.4,0,2.6-1.1,2.6-2.5v-2.3
	c0.1,0,0.2,0.1,0.3,0.1H5c0.6,0,1-0.5,1-1c0-0.6-0.5-1-1-1H2l-0.7-4.5h11.9c2,0,3.6-1.6,3.6-3.5v-21.1C16.9-43.4,15.2-45,13.2-45z
	 M-11.7-8.2c0,0.5-0.4,0.8-0.9,0.8h-14c-0.5,0-0.9-0.4-0.9-0.8v-4h15.7V-8.2z M-11.7-14h-15.7v-18.1h15.7
	C-11.7-32.1-11.7-14-11.7-14z M-11.7-33.7h-15.7v-1.1c0-0.5,0.4-0.8,0.9-0.8h14c0.5,0,0.9,0.4,0.9,0.8
	C-11.7-34.7-11.7-33.7-11.7-33.7z M-6.6-12.5h-3c-0.1,0-0.2,0-0.3,0.1v-4.5h3.9L-6.6-12.5z M-4.6-12.5l0.7-4.5h3.4l0.7,4.5H-4.6z
	 M14.9-20.6c0,0.9-0.8,1.6-1.6,1.6H-10v-2.2h24.8V-20.6z M14.9-23.1H-10v-11.7c0-1.3-1.1-2.5-2.6-2.5h-6.9v-4.1
	c0-0.9,0.8-1.6,1.6-1.6h31.1c0.9,0,1.6,0.7,1.6,1.6L14.9-23.1L14.9-23.1z"/>
<path id="XMLID_29_" class="st0" d="M42.6,14.1c-5.7-5.5-13.2-8.4-21.2-8.4l0,0l0,0c-8,0-15.5,2.9-21.2,8.4c-0.5,0.5-0.5,1.4,0,1.9
	c0.3,0.3,0.6,0.4,1,0.4s0.6-0.1,0.9-0.4c5.2-4.9,12-7.6,19.3-7.6s14.1,2.7,19.3,7.6c0.5,0.5,1.4,0.5,1.9,0
	C43.1,15.5,43.1,14.6,42.6,14.1z M21.4,15.3c-9.4,0-16.4,6.2-18.9,8.9c-0.5,0.5-0.5,1.3,0,1.8c2.5,2.7,9.6,8.9,18.9,8.9
	c9.4,0,16.4-6.2,18.9-8.9c0.5-0.5,0.5-1.3,0-1.8C37.8,21.5,30.8,15.3,21.4,15.3z M12.6,30.1c-3.2-1.5-5.7-3.6-7.2-5.1
	c1.6-1.5,4.2-3.7,7.5-5.2c-0.9,1.5-1.4,3.4-1.4,5.3C11.4,27.1,11.8,28.7,12.6,30.1z M24.4,32c-0.9,0.1-1.9,0.3-2.9,0.3
	c-1.1,0-2.4-0.1-3.4-0.4c-2.4-1.3-3.9-3.8-3.9-6.7c0-3.3,2-6.1,4.9-7.1c0.8-0.1,1.6-0.1,2.4-0.1c0.6,0,1.3,0,1.9,0.1
	c3,0.9,5.1,3.9,5.1,7.2C28.4,28.2,26.8,30.9,24.4,32z M29.8,30.4c0.9-1.5,1.4-3.3,1.4-5.2c0-2-0.5-3.9-1.6-5.6
	c3.6,1.5,6.3,3.8,8,5.5C35.9,26.7,33.1,28.8,29.8,30.4z M21.2,21.9c-1.9,0-3.4,1.5-3.4,3.3c0,1.9,1.5,3.3,3.4,3.3s3.4-1.5,3.4-3.3
	C22.8,25.3,21.2,23.8,21.2,21.9z"/>
</svg>
