<?xml version="1.0" encoding="utf-8"?>
<!-- Generator: Adobe Illustrator 19.0.0, SVG Export Plug-In . SVG Version: 6.00 Build 0)  -->
<svg version="1.1" id="Layer_1" xmlns="http://www.w3.org/2000/svg" xmlns:xlink="http://www.w3.org/1999/xlink" x="0px" y="0px"
	 viewBox="0 0 46 40" style="enable-background:new 0 0 46 40;" xml:space="preserve">
<style type="text/css">
	.st0{fill:#60707C;}
</style>
<path id="XMLID_8_" class="st0" d="M78.4,15.1l-4,4.1V8.3c0-0.5-0.4-0.8-0.8-0.8s-0.8,0.4-0.8,0.8v10.9l-4-4.1
	c-0.3-0.3-0.8-0.3-1.2,0c-0.2,0.2-0.2,0.4-0.2,0.6c0,0.2,0.1,0.4,0.2,0.6l5.4,5.5c0.3,0.3,0.8,0.3,1.2,0l5.4-5.5
	c0.3-0.3,0.3-0.8,0-1.3C79.2,14.8,78.7,14.8,78.4,15.1z M88.8,7.7c-0.3-0.3-0.8-0.3-1.2,0l-5.4,5.5C82,13.5,82,13.7,82,13.9
	c0,0.2,0.1,0.4,0.2,0.6c0.3,0.3,0.8,0.3,1.2,0l4-4.1v10.9c0,0.5,0.4,0.8,0.8,0.8s0.8-0.4,0.8-0.8V10.4l4,4.1c0.3,0.3,0.8,0.3,1.2,0
	c0.3-0.3,0.3-0.8,0-1.3L88.8,7.7z M99.9,0.2H61.8c-2.2,0-4,1.8-4,3.9v24.9c0,2.2,1.8,3.9,4,3.9h15.1l-0.7,4.9h-3.2c-0.6,0-1,0.5-1,1
	c0,0.6,0.5,1,1,1h16c0.6,0,1-0.5,1-1c0-0.6-0.5-1-1-1h-3.3l-0.7-4.9h15.1c2.2,0,4-1.8,4-3.9V4C103.9,1.9,102.1,0.2,99.9,0.2z
	 M78.4,37.7l0.7-4.9h3.7l0.7,4.9H78.4z M101.7,28.9c0,0.9-0.8,1.8-1.8,1.8H61.8c-0.9,0-1.8-0.7-1.8-1.8v-0.7h41.7
	C101.7,28.2,101.7,28.9,101.7,28.9z M101.7,26.1H60V4c0-0.9,0.8-1.8,1.8-1.8H100c0.9,0,1.8,0.7,1.8,1.8L101.7,26.1L101.7,26.1z"/>
<path id="XMLID_9_" class="st0" d="M-40.4,10.1c0.1-0.1,0.2-0.2,0.2-0.3l0,0l3.1-8c0.3-0.7-0.5-1.4-1.1-1.1l-8,3.1l0,0
	c-0.1,0-0.2,0.1-0.3,0.2l-16.7,16.7c-1.7,1.7-1.7,4.5,0,6.1c1.7,1.7,4.5,1.7,6.1,0L-40.4,10.1z M-54,21.1l-1.2-1.2l11.6-11.7
	l1.2,1.2L-54,21.1z M-39.5,3l-1.9,4.9l-3.1-3.1L-39.5,3z M-57.8,17.5L-46,5.8l1.2,1.2l-11.7,11.7L-57.8,17.5L-57.8,17.5z M-59,18.7
	l1.9,1.9l0,0l0,0l1.9,1.9l-1.2,1.2l-3.7-3.7L-59,18.7z M-58.3,25.5c-1,1-2.7,1-3.7,0c-1-1-1-2.7,0-3.7l0.7-0.7l3.7,3.7L-58.3,25.5z
	 M-20.1,10.7l-7.4-7.4c-0.4-0.4-0.9-0.4-1.2,0l-28.4,28.4c-0.4,0.4-0.4,0.9,0,1.2l7.4,7.4c0.4,0.4,0.9,0.4,1.2,0l28.4-28.4
	C-19.8,11.5-19.8,11-20.1,10.7z M-49.1,38.4l-6.1-6.1l3.7-3.7l1.9,1.9c0.4,0.4,0.9,0.4,1.2,0c0.4-0.4,0.4-0.9,0-1.2l-1.9-1.9
	l3.7-3.7l1.9,1.9c0.4,0.4,0.9,0.4,1.2,0c0.4-0.4,0.4-0.9,0-1.2l-1.9-1.9l3.7-3.7l1.9,1.9c0.4,0.4,0.9,0.4,1.2,0
	c0.4-0.4,0.4-0.9,0-1.2l-1.9-1.9l3.7-3.7l1.9,1.9c0.4,0.4,0.9,0.4,1.2,0c0.4-0.4,0.4-0.9,0-1.2l-1.9-1.9l3.7-3.7l1.9,1.9
	c0.4,0.4,0.9,0.4,1.2,0c0.4-0.4,0.4-0.9,0-1.2l-1.9-1.9l2.4-2.5l6.1,6.1L-49.1,38.4z"/>
<path id="XMLID_18_" class="st0" d="M9.6,36.7c1,0,1.7-0.8,1.7-1.7c0-1-0.8-1.7-1.7-1.7S7.9,34,7.9,35C7.9,35.9,8.6,36.7,9.6,36.7z
	 M32,8l-8.1,8.1v-6c0-0.5-0.4-0.9-0.9-0.9c-0.3,0-0.5,0.1-0.7,0.3C22.1,9.7,22,9.9,22,10.2l-0.1,8.1c0,0.5,0.4,0.9,0.9,0.9l8.1-0.1
	c0.5,0,0.9-0.4,1-1c0-0.5-0.4-0.9-0.9-0.9h-6l8.1-8.1c0.4-0.4,0.4-1,0-1.2C32.9,7.6,32.3,7.6,32,8z M42.4,0h-31
	c-2,0-3.6,1.6-3.6,3.5v4.1H2.6C1.1,7.7,0,8.8,0,10.2v26.6c0,1.3,1.1,2.5,2.6,2.5h14c1.4,0,2.6-1.1,2.6-2.5v-2.3
	c0.1,0,0.2,0.1,0.3,0.1h14.7c0.6,0,1-0.5,1-1c0-0.6-0.5-1-1-1h-3l-0.7-4.5h11.9c2,0,3.6-1.6,3.6-3.5V3.5C46,1.6,44.4,0,42.4,0z
	 M17.4,36.8c0,0.5-0.4,0.8-0.9,0.8h-14c-0.5,0-0.9-0.4-0.9-0.8v-4h15.7V36.8z M17.4,31H1.7V12.9h15.7C17.4,12.9,17.4,31,17.4,31z
	 M17.4,11.3H1.7v-1.1c0-0.5,0.4-0.8,0.9-0.8h14c0.5,0,0.9,0.4,0.9,0.8C17.4,10.3,17.4,11.3,17.4,11.3z M22.5,32.5h-3
	c-0.1,0-0.2,0-0.3,0.1v-4.5h3.9L22.5,32.5z M24.5,32.5l0.7-4.5h3.4l0.7,4.5H24.5z M44,24.4c0,0.9-0.8,1.6-1.6,1.6H19.2v-2.2H44V24.4
	z M44,21.9H19.2V10.2c0-1.3-1.1-2.5-2.6-2.5H9.7V3.5c0-0.9,0.8-1.6,1.6-1.6h31.1c0.9,0,1.6,0.7,1.6,1.6L44,21.9L44,21.9z"/>
</svg>
