<?xml version="1.0" encoding="utf-8"?>
<!-- Generator: Adobe Illustrator 19.0.0, SVG Export Plug-In . SVG Version: 6.00 Build 0)  -->
<svg version="1.1" id="Layer_1" xmlns="http://www.w3.org/2000/svg" xmlns:xlink="http://www.w3.org/1999/xlink" x="0px" y="0px"
	 viewBox="0 0 46 40" style="enable-background:new 0 0 46 40;" xml:space="preserve">
<style type="text/css">
	.st0{fill:#60707C;}
</style>
<path id="XMLID_8_" class="st0" d="M78.4,15.1l-4,4.1V8.3c0-0.5-0.4-0.8-0.8-0.8s-0.8,0.4-0.8,0.8v10.9l-4-4.1
	c-0.3-0.3-0.8-0.3-1.2,0c-0.2,0.2-0.2,0.4-0.2,0.6c0,0.2,0.1,0.4,0.2,0.6l5.4,5.5c0.3,0.3,0.8,0.3,1.2,0l5.4-5.5
	c0.3-0.3,0.3-0.8,0-1.3C79.2,14.8,78.7,14.8,78.4,15.1z M88.8,7.7c-0.3-0.3-0.8-0.3-1.2,0l-5.4,5.5C82,13.5,82,13.7,82,13.9
	c0,0.2,0.1,0.4,0.2,0.6c0.3,0.3,0.8,0.3,1.2,0l4-4.1v10.9c0,0.5,0.4,0.8,0.8,0.8s0.8-0.4,0.8-0.8V10.4l4,4.1c0.3,0.3,0.8,0.3,1.2,0
	c0.3-0.3,0.3-0.8,0-1.3L88.8,7.7z M99.9,0.2H61.8c-2.2,0-4,1.8-4,3.9v24.9c0,2.2,1.8,3.9,4,3.9h15.1l-0.7,4.9h-3.2c-0.6,0-1,0.5-1,1
	c0,0.6,0.5,1,1,1h16c0.6,0,1-0.5,1-1c0-0.6-0.5-1-1-1h-3.3l-0.7-4.9h15.1c2.2,0,4-1.8,4-3.9V4C103.9,1.9,102.1,0.2,99.9,0.2z
	 M78.4,37.7l0.7-4.9h3.7l0.7,4.9H78.4z M101.7,28.9c0,0.9-0.8,1.8-1.8,1.8H61.8c-0.9,0-1.8-0.7-1.8-1.8v-0.7h41.7
	C101.7,28.2,101.7,28.9,101.7,28.9z M101.7,26.1H60V4c0-0.9,0.8-1.8,1.8-1.8H100c0.9,0,1.8,0.7,1.8,1.8L101.7,26.1L101.7,26.1z"/>
<path id="XMLID_9_" class="st0" d="M24.1,9.5c0.1-0.1,0.2-0.2,0.2-0.3l0,0l3.1-8c0.3-0.7-0.5-1.4-1.1-1.1l-8,3.1l0,0
	c-0.1,0-0.2,0.1-0.3,0.2L1.3,20c-1.7,1.7-1.7,4.5,0,6.1c1.7,1.7,4.5,1.7,6.1,0L24.1,9.5z M10.5,20.5l-1.2-1.2L20.9,7.6l1.2,1.2
	L10.5,20.5z M25,2.4l-1.9,4.9l-3.1-3.1L25,2.4z M6.7,16.9L18.5,5.2l1.2,1.2L8,18.1L6.7,16.9L6.7,16.9z M5.5,18.1L7.4,20l0,0l0,0
	l1.9,1.9l-1.2,1.2l-3.7-3.7L5.5,18.1z M6.2,24.9c-1,1-2.7,1-3.7,0c-1-1-1-2.7,0-3.7l0.7-0.7l3.7,3.7L6.2,24.9z M44.4,10.1L37,2.7
	c-0.4-0.4-0.9-0.4-1.2,0L7.4,31.1C7,31.4,7,32,7.4,32.3l7.4,7.4c0.4,0.4,0.9,0.4,1.2,0l28.4-28.4C44.7,11,44.7,10.4,44.4,10.1z
	 M15.4,37.9l-6.1-6.1L13,28l1.9,1.9c0.4,0.4,0.9,0.4,1.2,0c0.4-0.4,0.4-0.9,0-1.2l-1.9-1.9l3.7-3.7l1.9,1.9c0.4,0.4,0.9,0.4,1.2,0
	c0.4-0.4,0.4-0.9,0-1.2l-1.9-1.9l3.7-3.7l1.9,1.9c0.4,0.4,0.9,0.4,1.2,0c0.4-0.4,0.4-0.9,0-1.2l-1.9-1.9l3.7-3.7l1.9,1.9
	c0.4,0.4,0.9,0.4,1.2,0c0.4-0.4,0.4-0.9,0-1.2L29,12l3.7-3.7l1.9,1.9c0.4,0.4,0.9,0.4,1.2,0c0.4-0.4,0.4-0.9,0-1.2L33.9,7l2.4-2.5
	l6.1,6.1L15.4,37.9z"/>
</svg>
