<?xml version="1.0" encoding="utf-8"?>
<!-- Generator: Adobe Illustrator 19.0.0, SVG Export Plug-In . SVG Version: 6.00 Build 0)  -->
<svg version="1.1" id="Layer_1" xmlns="http://www.w3.org/2000/svg" xmlns:xlink="http://www.w3.org/1999/xlink" x="0px" y="0px"
	 viewBox="0 0 40 14" style="enable-background:new 0 0 40 14;" xml:space="preserve">
<style type="text/css">
	.st0{fill:#EB3F3C;}
</style>
<path id="XMLID_1_" class="st0" d="M3.7,2.1c0,0,0.1,0,0.2,0c0.8,0,3.8,0.1,5.8,2.1c2.3,2.3,8.1,8.1,8.1,8.1
	c1.1,1.1,2.4,1.6,3.7,1.6c1.3,0,2.7-0.5,3.7-1.6c0,0,5.8-5.8,8.1-8.1c2-2,4.8-2.1,5.8-2.1c0.1,0,0.2,0,0.2,0l0,0h5.4V0h-5.4H39
	c-1.5,0-4.7,0.3-7,2.7l-8.1,8.1c-0.6,0.6-1.4,0.9-2.2,0.9c-0.8,0-1.7-0.3-2.2-0.9l-8.1-8.1C8.9,0.3,5.7,0,4.3,0H3.9l0,0h-5.4v2.1
	H3.7L3.7,2.1z"/>
</svg>
